<svg xmlns="http://www.w3.org/2000/svg" viewBox="0 0 74.91 80.65"><defs><style>.cls-1{fill:#0197ba;}</style></defs><title>Asset 7</title><g id="Layer_2" data-name="Layer 2"><g id="Layer_7" data-name="Layer 7"><g id="Layer_17" data-name="Layer 17"><g id="Layer_35" data-name="Layer 35"><path class="cls-1" d="M54.11,0A21.32,21.32,0,0,0,41.66,4.16l0,0a7.51,7.51,0,0,1-8.35,0l0,0A21.36,21.36,0,0,0,20.78,0C9.13,0,0,11,0,25c0,5.84,2.7,11.11,5.08,15.77l0,0,.45.88c4,7.84,7,14.93,9.43,20.64,4.86,11.42,7.8,18.32,12.75,18.32,4.75,0,5.51-3.29,5.51-13.87,0-6.31.28-10.11.92-12.33.77-2.68,2.1-3,3.29-3s2.53.36,3.29,3c.64,2.22.93,6,.93,12.33,0,10.58.76,13.87,5.51,13.87,5,0,7.88-6.9,12.75-18.33,2.42-5.7,5.44-12.79,9.43-20.63.15-.3.31-.6.46-.91h0c2.38-4.66,5.08-9.93,5.08-15.77,0-14-9.13-25-20.8-25Z"/></g></g></g></g></svg>