<svg xmlns="http://www.w3.org/2000/svg" viewBox="0 0 82.24 74.76"><defs><style>.cls-1{fill:#0197ba;}</style></defs><title>Asset 6</title><g id="Layer_2" data-name="Layer 2"><g id="Layer_7" data-name="Layer 7"><g id="Layer_17" data-name="Layer 17"><g id="Layer_22" data-name="Layer 22"><path class="cls-1" d="M27.53,38.49l5.62-11.21a2.37,2.37,0,0,1,2.38-1.34,2.45,2.45,0,0,1,2.07,1.83l5.15,18.92,4.59-7.09a2.4,2.4,0,0,1,2-1.11H79.16a27.05,27.05,0,0,0,3.08-12.55C82.24,11.64,71.19,0,57.61,0A24,24,0,0,0,41.12,6.67,24,24,0,0,0,24.63,0C11.05,0,0,11.64,0,25.94A27.17,27.17,0,0,0,3.08,38.49Z"/><path class="cls-1" d="M50.61,43.57,43.84,54a2.37,2.37,0,0,1-2,1.11,2.36,2.36,0,0,1-2.31-1.84L34.62,35.23l-3.5,7A2.4,2.4,0,0,1,29,43.57H6.56c.44.5.89,1,1.37,1.44l28.69,27.9a6.4,6.4,0,0,0,9.15-.15L74.31,45c.48-.46.94-.94,1.37-1.44Z"/></g></g></g></g></svg>