<svg xmlns="http://www.w3.org/2000/svg" viewBox="0 0 259.42 30.95"><defs><style>.cls-1{fill:#0197ba;}.cls-2{fill:#425262;}</style></defs><title>Asset 1</title><g id="Layer_2" data-name="Layer 2"><g id="Layer_14" data-name="Layer 14"><polygon class="cls-1" points="15.13 0 8.94 0 0 15.48 8.94 30.95 15.13 30.95 6.19 15.48 15.13 0"/><polygon class="cls-1" points="32.66 20.82 35.74 15.48 32.66 10.14 39.19 0 26.81 0 21.32 0 12.38 15.48 21.32 30.95 26.81 30.95 39.19 30.95 32.66 20.82"/><path class="cls-2" d="M54.64,29.58V2.89h8.87a11.53,11.53,0,0,1,6.93,1.83,6.31,6.31,0,0,1,2.49,5.45,5.37,5.37,0,0,1-1.05,3.25A6.12,6.12,0,0,1,69,15.54a5.91,5.91,0,0,1,3.66,2.29,6.75,6.75,0,0,1,1.29,4.09,6.86,6.86,0,0,1-2.46,5.71,10.62,10.62,0,0,1-6.78,1.95Zm4.45-15.45H64a5.09,5.09,0,0,0,3.28-1,3.38,3.38,0,0,0,1.2-2.78,3.47,3.47,0,0,0-1.27-2.94,6,6,0,0,0-3.7-1H59.09Zm0,3.32V26H64.7A5.33,5.33,0,0,0,68.26,25a3.75,3.75,0,0,0,1.24-3,4.81,4.81,0,0,0-1-3.29,4.17,4.17,0,0,0-3.26-1.17Z"/><path class="cls-2" d="M88,13.76l-1.91-.07a4,4,0,0,0-2.17.55,3.68,3.68,0,0,0-1.35,1.56V29.58H78.12V9.75h4.07l.29,2.88a6.35,6.35,0,0,1,1.93-2.39,4.54,4.54,0,0,1,2.72-.86,3.7,3.7,0,0,1,.76.07,5.47,5.47,0,0,1,.64.15Z"/><path class="cls-2" d="M103,29.58a14.59,14.59,0,0,1-.39-1.47,8.65,8.65,0,0,1-.21-1.43A7.93,7.93,0,0,1,100,29a6.14,6.14,0,0,1-3.35.95,6.59,6.59,0,0,1-4.75-1.6A5.77,5.77,0,0,1,90.27,24a5.16,5.16,0,0,1,2.27-4.48,11,11,0,0,1,6.4-1.6h3.46V16.16a3.21,3.21,0,0,0-.92-2.43,3.61,3.61,0,0,0-2.62-.88,3.72,3.72,0,0,0-2.42.73,2.35,2.35,0,0,0-.89,1.89H91.26l0-.11a4.88,4.88,0,0,1,2.1-4.16,8.89,8.89,0,0,1,5.8-1.82,8.5,8.5,0,0,1,5.59,1.76,6.19,6.19,0,0,1,2.12,5.06V25a16.14,16.14,0,0,0,.17,2.35,12.93,12.93,0,0,0,.53,2.21Zm-5.46-3.19a5.59,5.59,0,0,0,3-.84,4.23,4.23,0,0,0,1.79-1.93V20.69H98.86a4.47,4.47,0,0,0-3,1,3,3,0,0,0-1.1,2.27,2.31,2.31,0,0,0,.74,1.8A3,3,0,0,0,97.58,26.39Z"/><path class="cls-2" d="M115.56,9.75l.26,2.86a7,7,0,0,1,2.44-2.37,6.56,6.56,0,0,1,3.33-.86,6.24,6.24,0,0,1,4.83,1.88c1.15,1.25,1.73,3.21,1.73,5.86V29.58H123.7V17.15a4.44,4.44,0,0,0-.93-3.18A3.81,3.81,0,0,0,120,13a4.63,4.63,0,0,0-2.33.58A4.79,4.79,0,0,0,116,15.19V29.58h-4.46V9.75Z"/><path class="cls-2" d="M132,19.94a13,13,0,0,1,2-7.65,6.57,6.57,0,0,1,5.72-2.91,6.29,6.29,0,0,1,2.88.65,6.64,6.64,0,0,1,2.21,1.86V1h4.46V29.58h-3.74l-.44-2.46a6.58,6.58,0,0,1-2.29,2.12,6.51,6.51,0,0,1-3.12.73A6.74,6.74,0,0,1,134,27.31a11.17,11.17,0,0,1-2-7Zm4.46.38a8,8,0,0,0,1.05,4.39,3.71,3.71,0,0,0,3.35,1.63,4.51,4.51,0,0,0,2.39-.61,4.59,4.59,0,0,0,1.6-1.72V15.36a4.61,4.61,0,0,0-1.61-1.72,4.44,4.44,0,0,0-2.35-.61A3.59,3.59,0,0,0,137.5,15a10.09,10.09,0,0,0-1.08,5Z"/><path class="cls-2" d="M184.8,29.58h-4.43L168.53,10.1l-.11,0V29.58H164V2.89h4.46l11.84,19.47.11,0V2.89h4.43Z"/><path class="cls-2" d="M202,29.58a14.59,14.59,0,0,1-.39-1.47,9.86,9.86,0,0,1-.21-1.43A7.93,7.93,0,0,1,199,29a6.14,6.14,0,0,1-3.35.95,6.59,6.59,0,0,1-4.75-1.6A5.77,5.77,0,0,1,189.24,24a5.18,5.18,0,0,1,2.27-4.48,11,11,0,0,1,6.4-1.6h3.46V16.16a3.2,3.2,0,0,0-.91-2.43,4.36,4.36,0,0,0-5-.15,2.33,2.33,0,0,0-.9,1.89h-4.29l0-.11a4.88,4.88,0,0,1,2.1-4.16,8.89,8.89,0,0,1,5.8-1.82,8.5,8.5,0,0,1,5.59,1.76,6.2,6.2,0,0,1,2.13,5.06V25a16.17,16.17,0,0,0,.16,2.35,12.93,12.93,0,0,0,.53,2.21Zm-5.46-3.19a5.63,5.63,0,0,0,3-.84,4.26,4.26,0,0,0,1.78-1.93V20.69h-3.54a4.49,4.49,0,0,0-3,1,3,3,0,0,0-1.1,2.27,2.31,2.31,0,0,0,.74,1.8A3.06,3.06,0,0,0,196.55,26.39Z"/><path class="cls-2" d="M214.57,9.75l.24,2.58a6.76,6.76,0,0,1,2.43-2.18,7.24,7.24,0,0,1,3.39-.77,6.18,6.18,0,0,1,3.34.88,5.32,5.32,0,0,1,2.09,2.64,6.92,6.92,0,0,1,2.42-2.58A6.45,6.45,0,0,1,232,9.38a5.85,5.85,0,0,1,4.72,2q1.72,2,1.73,6.2v12H234v-12a5.55,5.55,0,0,0-.87-3.55,3.25,3.25,0,0,0-2.62-1,3.85,3.85,0,0,0-2.42.77,4.3,4.3,0,0,0-1.43,2.07c0,.18,0,.34,0,.48a2.48,2.48,0,0,1,0,.38V29.58h-4.45v-12a5.54,5.54,0,0,0-.89-3.51A3.2,3.2,0,0,0,218.75,13a4.66,4.66,0,0,0-2.3.52A3.88,3.88,0,0,0,215,15V29.58H210.5V9.75Z"/><path class="cls-2" d="M251.65,30a8.63,8.63,0,0,1-6.72-2.76,10.13,10.13,0,0,1-2.5-7.09v-.73a10.59,10.59,0,0,1,2.48-7.18,7.87,7.87,0,0,1,6.22-2.83,7.74,7.74,0,0,1,6.15,2.43,9.49,9.49,0,0,1,2.14,6.52V21H247.05l0,.09a6.15,6.15,0,0,0,1.38,3.85,4.39,4.39,0,0,0,3.53,1.5A9.64,9.64,0,0,0,255,26a9.78,9.78,0,0,0,2.47-1.26l1.43,2.92a9.07,9.07,0,0,1-3,1.67A12.2,12.2,0,0,1,251.65,30Zm-.52-17a3.32,3.32,0,0,0-2.71,1.31,6.41,6.41,0,0,0-1.32,3.32l0,.1H255v-.46a4.75,4.75,0,0,0-1-3.08A3.5,3.5,0,0,0,251.13,13Z"/></g></g></svg>