<svg xmlns="http://www.w3.org/2000/svg" viewBox="0 0 80.67 80.67"><defs><style>.cls-1{fill:#0197ba;}</style></defs><title>Asset 5</title><g id="Layer_2" data-name="Layer 2"><g id="Layer_7" data-name="Layer 7"><g id="Layer_17" data-name="Layer 17"><g id="Layer_21" data-name="Layer 21"><path class="cls-1" d="M23.8,47.58H18.91a11.77,11.77,0,0,1-2.76,7.58A26.28,26.28,0,0,0,30.88,69.6V59A16.71,16.71,0,0,1,23.8,47.58Z"/><path class="cls-1" d="M56.87,47.58A16.71,16.71,0,0,1,49.79,59V69.6A26.28,26.28,0,0,0,64.52,55.16a11.77,11.77,0,0,1-2.76-7.58Z"/><path class="cls-1" d="M40.33,41.23a14.19,14.19,0,0,1-11.74,6.35,12,12,0,0,0,23.48,0A14.21,14.21,0,0,1,40.33,41.23Z"/><path class="cls-1" d="M35.61,61.24V80.67h9.45V61.24a16.76,16.76,0,0,1-9.45,0Z"/><path class="cls-1" d="M75,26.23a12.57,12.57,0,0,0-12.34-17,12.58,12.58,0,0,0-20-6.49V33.4a9.45,9.45,0,0,0,9.45,9.45H66.49v4.73a7.09,7.09,0,0,0,14.18,0V36.73A12.56,12.56,0,0,0,75,26.23Z"/><path class="cls-1" d="M38,33.4V2.75A12.58,12.58,0,0,0,18,9.24a12.57,12.57,0,0,0-12.34,17A12.56,12.56,0,0,0,0,36.73V47.58a7.09,7.09,0,1,0,14.18,0V42.85H28.52A9.45,9.45,0,0,0,38,33.4Z"/></g></g></g></g></svg>