<svg xmlns="http://www.w3.org/2000/svg" viewBox="0 0 209 55"><defs><style>.cls-1{fill:#f1f5fb;}.cls-2{fill:#0197ba;}</style></defs><title>Asset 20</title><g id="Layer_2" data-name="Layer 2"><g id="Layer_3" data-name="Layer 3"><g id="Layer_36" data-name="Layer 36"><g id="Layer_45" data-name="Layer 45"><rect class="cls-1" width="209" height="55"/><path class="cls-2" d="M42.27,18.19a8.66,8.66,0,0,1,8.43,5.46H47.12a5.07,5.07,0,0,0-4.85-2.85c-3.61,0-6.22,2.56-6.22,6.66s2.61,6.68,6.22,6.68a5.06,5.06,0,0,0,4.85-2.84H50.7a8.64,8.64,0,0,1-8.43,5.43A9.06,9.06,0,0,1,33,27.46,9.08,9.08,0,0,1,42.27,18.19Z"/><path class="cls-2" d="M60.4,36.81c-4.1,0-7.21-2.93-7.21-7.44a7.34,7.34,0,1,1,14.67,0A7.21,7.21,0,0,1,60.4,36.81Zm0-2.59c2.22,0,4.41-1.59,4.41-4.85s-2.12-4.83-4.33-4.83-4.26,1.56-4.26,4.83S58.15,34.22,60.4,34.22Z"/><path class="cls-2" d="M81,28.53c0-2.64-1.44-4-3.6-4s-3.63,1.35-3.63,4v8h-3V22.19h3v1.64A5.54,5.54,0,0,1,78.06,22c3.37,0,5.9,2.12,5.9,6.14v8.48H81Z"/><path class="cls-2" d="M88.2,24.61H86.51V22.19H88.2V18.61h3v3.58H94.7v2.42H91.21v8c0,1.07.41,1.51,1.67,1.51H94.7v2.48H92.36c-2.56,0-4.16-1.07-4.16-4Z"/><path class="cls-2" d="M103.23,22a6.12,6.12,0,0,1,5,2.33V22.19h3V36.57h-3V34.43a6.19,6.19,0,0,1-5,2.38c-3.73,0-6.73-3.06-6.73-7.5S99.45,22,103.23,22Zm.63,2.59a4.41,4.41,0,0,0-4.36,4.77c0,3.11,2.14,4.91,4.36,4.91s4.36-1.75,4.36-4.85S106.11,24.54,103.86,24.54Z"/><path class="cls-2" d="M121.18,22c3.53,0,5.82,1.75,6.63,4.78H124.6a3.36,3.36,0,0,0-3.42-2.27c-2.4,0-4,1.77-4,4.91s1.59,4.93,4,4.93A3.28,3.28,0,0,0,124.6,32h3.21a6.46,6.46,0,0,1-6.63,4.78c-4.12,0-7-2.93-7-7.44S117.06,22,121.18,22Z"/><path class="cls-2" d="M131.25,24.61h-1.7V22.19h1.7V18.61h3v3.58h3.5v2.42h-3.5v8c0,1.07.42,1.51,1.67,1.51h1.83v2.48H135.4c-2.56,0-4.15-1.07-4.15-4Z"/><path class="cls-2" d="M147.24,18.43h3V30c0,2.82,1.59,4.15,4.1,4.15s4.12-1.33,4.12-4.15V18.43h3V29.94c0,4.62-3.35,6.81-7.13,6.81s-7-2.19-7-6.81Z"/><path class="cls-2" d="M170.49,36.81c-3.44,0-5.87-2-6-4.65h3.08a2.62,2.62,0,0,0,2.87,2.14c1.72,0,2.63-.73,2.63-1.72,0-2.82-8.35-1.2-8.35-6.48,0-2.29,2.14-4.15,5.54-4.15s5.4,1.75,5.55,4.62h-3c-.1-1.25-1.07-2.11-2.69-2.11s-2.43.65-2.43,1.62c0,2.89,8.12,1.27,8.28,6.47C176,35,173.89,36.81,170.49,36.81Z"/></g></g></g></g></svg>