<svg xmlns="http://www.w3.org/2000/svg" viewBox="0 0 64.33 43.98"><defs><style>.cls-1{fill:#a6adb5;}</style></defs><title>Asset 22</title><g id="Layer_2" data-name="Layer 2"><g id="Layer_3" data-name="Layer 3"><g id="Layer_36" data-name="Layer 36"><g id="Layer_47" data-name="Layer 47"><path class="cls-1" d="M18.25,19.15V0H35.93V15.12q0,12.27-2.84,17.68A25,25,0,0,1,20.81,44l-4-6.51a14.28,14.28,0,0,0,7.38-6.37c1.61-2.9,2.52-6.88,2.7-12Zm28.4,0V0H64.33V15.12q0,12.27-2.84,17.68A25,25,0,0,1,49.21,44l-4-6.51a14.28,14.28,0,0,0,7.38-6.37q2.43-4.35,2.7-12Z"/><text/></g></g></g></g></svg>