<svg xmlns="http://www.w3.org/2000/svg" viewBox="0 0 48.97 92.87"><defs><style>.cls-1{fill:#0197ba;}</style></defs><title>Asset 8</title><g id="Layer_2" data-name="Layer 2"><g id="Layer_7" data-name="Layer 7"><g id="Layer_17" data-name="Layer 17"><g id="Layer_18" data-name="Layer 18"><path class="cls-1" d="M40.81,27.21H37.89l-.64-1.81a13.51,13.51,0,0,0-25.52,0l-.65,1.81H8.16a2.72,2.72,0,0,0,0,5.44h2.92l.65,1.81a13.61,13.61,0,0,0,4.6,6.27,8.16,8.16,0,0,1,16.31,0,13.63,13.63,0,0,0,4.61-6.27l.64-1.81h2.92a2.72,2.72,0,0,0,0-5.44Zm-19,2.72H16.32V24.49h5.45Zm10.88,0H27.21V24.49h5.44Z"/><path class="cls-1" d="M24.49,0A24.44,24.44,0,0,0,.23,22.19a8.23,8.23,0,0,1,2.49-.42H7.35a18.93,18.93,0,0,1,34.27,0h4.63a8.18,8.18,0,0,1,2.49.42A24.42,24.42,0,0,0,24.49,0Z"/><path class="cls-1" d="M24.49,38.09a2.72,2.72,0,1,0,2.72,2.72A2.72,2.72,0,0,0,24.49,38.09Z"/><path class="cls-1" d="M29.9,61.24c-1.4,0-2.23,1.29-2.67,2.37l-.69,1.69H22.41l-.7-1.66c-.46-1.1-1.29-2.4-2.64-2.4-1.77,0-2.69,1.59-2.69,3.16,0,2.36,2.42,4.51,7.06,8.43l1,.89,1.05-.9c3.06-2.59,7.06-5.72,7.06-8.42C32.6,62.83,31.67,61.24,29.9,61.24Z"/><path class="cls-1" d="M46.25,38.09H41.62a18.93,18.93,0,0,1-34.27,0H2.72A7.91,7.91,0,0,1,0,37.59V68c0,13.5,11,24.85,24.49,24.85S49,81.52,49,68V37.59A7.91,7.91,0,0,1,46.25,38.09ZM29.05,77l-4.56,3.91L19.93,77c-5.22-4.4-9-7.59-9-12.58a8.29,8.29,0,0,1,8.13-8.6,7.51,7.51,0,0,1,5.4,2.28A7.63,7.63,0,0,1,29.9,55.8,8.29,8.29,0,0,1,38,64.4C38,69.76,33.43,73.29,29.05,77Z"/></g></g></g></g></svg>