<svg xmlns="http://www.w3.org/2000/svg" viewBox="0 0 237.42 28.33"><defs><style>.cls-1{fill:#0197ba;}.cls-2{fill:#edf2fa;}</style></defs><title>Asset 20</title><g id="Layer_2" data-name="Layer 2"><g id="Layer_3" data-name="Layer 3"><g id="Layer_36" data-name="Layer 36"><g id="Layer_51" data-name="Layer 51"><polygon class="cls-1" points="13.84 0 8.18 0 0 14.16 8.18 28.33 13.84 28.33 5.67 14.16 13.84 0"/><polygon class="cls-1" points="29.89 19.05 32.71 14.16 29.89 9.28 35.86 0 24.53 0 19.51 0 11.33 14.16 19.51 28.33 24.53 28.33 35.86 28.33 29.89 19.05"/><path class="cls-2" d="M50,27.07V2.65h8.12a10.57,10.57,0,0,1,6.34,1.67,5.77,5.77,0,0,1,2.28,5,4.88,4.88,0,0,1-.95,3,5.63,5.63,0,0,1-2.65,1.94,5.48,5.48,0,0,1,3.35,2.1,6.13,6.13,0,0,1,1.18,3.74,6.3,6.3,0,0,1-2.25,5.23,9.74,9.74,0,0,1-6.21,1.78Zm4.08-14.14h4.5a4.58,4.58,0,0,0,3-.9,3.08,3.08,0,0,0,1.1-2.54A3.18,3.18,0,0,0,61.51,6.8a5.51,5.51,0,0,0-3.39-.88h-4Zm0,3V23.8h5.13a4.93,4.93,0,0,0,3.26-1,3.44,3.44,0,0,0,1.14-2.79,4.35,4.35,0,0,0-1-3,3.78,3.78,0,0,0-3-1.07Z"/><path class="cls-2" d="M80.53,12.6l-1.74-.07a3.69,3.69,0,0,0-2,.5,3.32,3.32,0,0,0-1.23,1.43V27.07H71.49V8.92h3.73l.26,2.64a5.79,5.79,0,0,1,1.77-2.18,4.11,4.11,0,0,1,2.49-.79,3.69,3.69,0,0,1,.69.06,3.19,3.19,0,0,1,.59.14Z"/><path class="cls-2" d="M94.3,27.07c-.14-.46-.26-.9-.36-1.34a9.85,9.85,0,0,1-.19-1.31,7.18,7.18,0,0,1-2.21,2.14,5.57,5.57,0,0,1-3.06.86A6,6,0,0,1,84.13,26a5.3,5.3,0,0,1-1.52-4,4.76,4.76,0,0,1,2.08-4.11,10.13,10.13,0,0,1,5.86-1.46h3.17v-1.6a3,3,0,0,0-.84-2.23,4,4,0,0,0-4.61-.13,2.13,2.13,0,0,0-.83,1.73H83.52l0-.1a4.47,4.47,0,0,1,1.92-3.81,8.13,8.13,0,0,1,5.31-1.66,7.75,7.75,0,0,1,5.12,1.61,5.67,5.67,0,0,1,1.94,4.63V22.9a15,15,0,0,0,.15,2.15,11.67,11.67,0,0,0,.49,2Zm-5-2.92a5.07,5.07,0,0,0,2.77-.77,3.89,3.89,0,0,0,1.64-1.76V18.94H90.48a4,4,0,0,0-2.78.88,2.64,2.64,0,0,0-1,2.07,2.13,2.13,0,0,0,.68,1.65A2.79,2.79,0,0,0,89.31,24.15Z"/><path class="cls-2" d="M105.76,8.92l.24,2.62a6.42,6.42,0,0,1,2.23-2.17,6,6,0,0,1,3-.78,5.7,5.7,0,0,1,4.42,1.72c1.06,1.14,1.58,2.93,1.58,5.36v11.4h-4.07V15.7a4,4,0,0,0-.85-2.91,3.43,3.43,0,0,0-2.57-.86,4.25,4.25,0,0,0-2.13.52,4.57,4.57,0,0,0-1.55,1.45V27.07H102V8.92Z"/><path class="cls-2" d="M120.77,18.25a12,12,0,0,1,1.86-7,6,6,0,0,1,5.24-2.66,5.82,5.82,0,0,1,2.64.59,6,6,0,0,1,2,1.71V.9h4.08V27.07h-3.42l-.41-2.25a6,6,0,0,1-2.09,1.94,6,6,0,0,1-2.86.66,6.2,6.2,0,0,1-5.2-2.43,10.23,10.23,0,0,1-1.86-6.39Zm4.08.35a7.32,7.32,0,0,0,1,4,3.4,3.4,0,0,0,3.06,1.49,4.09,4.09,0,0,0,2.19-.55A4.16,4.16,0,0,0,132.53,22V14.06a4.15,4.15,0,0,0-1.48-1.57,3.93,3.93,0,0,0-2.14-.56,3.28,3.28,0,0,0-3.07,1.75,9.24,9.24,0,0,0-1,4.57Z"/><path class="cls-2" d="M169.13,27.07h-4.06L154.24,9.24l-.1,0v17.8h-4.08V2.65h4.08L165,20.46l.1,0V2.65h4.06Z"/><path class="cls-2" d="M184.88,27.07c-.14-.46-.26-.9-.36-1.34a9.85,9.85,0,0,1-.19-1.31,7.29,7.29,0,0,1-2.21,2.14,5.57,5.57,0,0,1-3.06.86A6,6,0,0,1,174.71,26a5.3,5.3,0,0,1-1.52-4,4.74,4.74,0,0,1,2.08-4.11,10.12,10.12,0,0,1,5.85-1.46h3.17v-1.6a3,3,0,0,0-.83-2.23,3.36,3.36,0,0,0-2.4-.8,3.4,3.4,0,0,0-2.22.67,2.12,2.12,0,0,0-.82,1.73H174.1l0-.1A4.47,4.47,0,0,1,176,10.25a8.13,8.13,0,0,1,5.31-1.66,7.71,7.71,0,0,1,5.11,1.61,5.65,5.65,0,0,1,2,4.63V22.9a15,15,0,0,0,.15,2.15,10.82,10.82,0,0,0,.49,2Zm-5-2.92a5.08,5.08,0,0,0,2.78-.77,3.81,3.81,0,0,0,1.63-1.76V18.94h-3.23a4.08,4.08,0,0,0-2.79.88,2.66,2.66,0,0,0-1,2.07,2.09,2.09,0,0,0,.68,1.65A2.76,2.76,0,0,0,179.88,24.15Z"/><path class="cls-2" d="M196.37,8.92l.22,2.37a6.19,6.19,0,0,1,2.23-2,6.56,6.56,0,0,1,3.1-.7,5.67,5.67,0,0,1,3.06.8,4.89,4.89,0,0,1,1.91,2.42,6.4,6.4,0,0,1,2.21-2.37,6,6,0,0,1,3.22-.85,5.34,5.34,0,0,1,4.32,1.87c1.06,1.24,1.59,3.14,1.59,5.68V27.07h-4.08V16.12a5.07,5.07,0,0,0-.8-3.26,3,3,0,0,0-2.39-.93,3.48,3.48,0,0,0-2.21.7,4,4,0,0,0-1.31,1.9c0,.16,0,.31,0,.43s0,.24,0,.35V27.07H203.4V16.12a5,5,0,0,0-.81-3.21,2.92,2.92,0,0,0-2.39-1,4.3,4.3,0,0,0-2.11.47,3.62,3.62,0,0,0-1.37,1.35V27.07h-4.07V8.92Z"/><path class="cls-2" d="M230.3,27.42a7.88,7.88,0,0,1-6.14-2.52,9.25,9.25,0,0,1-2.29-6.48v-.67a9.67,9.67,0,0,1,2.27-6.57,7.17,7.17,0,0,1,5.69-2.59,7.1,7.1,0,0,1,5.63,2.22,8.67,8.67,0,0,1,2,6v2.4H226.09l0,.09a5.67,5.67,0,0,0,1.27,3.52,4,4,0,0,0,3.23,1.37,8.65,8.65,0,0,0,2.81-.4,9,9,0,0,0,2.27-1.16L237,25.27a8.74,8.74,0,0,1-2.72,1.53A11.26,11.26,0,0,1,230.3,27.42Zm-.47-15.56a3.06,3.06,0,0,0-2.48,1.2,5.91,5.91,0,0,0-1.21,3l0,.09h7.19v-.42a4.3,4.3,0,0,0-.88-2.82A3.19,3.19,0,0,0,229.83,11.86Z"/></g></g></g></g></svg>