<svg xmlns="http://www.w3.org/2000/svg" viewBox="0 0 79.46 79.46"><defs><style>.cls-1{fill:#0197ba;}</style></defs><title>Asset 10</title><g id="Layer_2" data-name="Layer 2"><g id="Layer_7" data-name="Layer 7"><g id="Layer_17" data-name="Layer 17"><g id="Layer_20" data-name="Layer 20"><path class="cls-1" d="M77.59,10.9l-8.65,8.66L28.46,77A5.89,5.89,0,0,1,21,78.84l-7.52-3.76,6.75-.75a8.62,8.62,0,0,0,6.06-3.55L63.05,19.59V16.41H59.87L8.68,53.16a8.69,8.69,0,0,0-3.55,6.06L4.38,66,.62,58.45A6,6,0,0,1,0,55.82,5.88,5.88,0,0,1,2.5,51L59.73,10.68l8.84-8.81a6.38,6.38,0,0,1,9,9Z"/></g></g></g></g></svg>